<?xml version="1.0" encoding="utf-8"?>
<!-- Generator: Adobe Illustrator 16.0.4, SVG Export Plug-In . SVG Version: 6.00 Build 0)  -->
<!DOCTYPE svg PUBLIC "-//W3C//DTD SVG 1.1//EN" "http://www.w3.org/Graphics/SVG/1.1/DTD/svg11.dtd">
<svg version="1.1" id="Layer_1" xmlns:serif="http://www.serif.com/"
	 xmlns="http://www.w3.org/2000/svg" xmlns:xlink="http://www.w3.org/1999/xlink" x="0px" y="0px" width="2000px" height="2000px"
	 viewBox="-744 -744 2000 2000" enable-background="new -744 -744 2000 2000" xml:space="preserve">
<path id="Layer-1" serif:id="Layer 1" d="M338.789,123.816l312.875-312.87C544.231-278.019,406.379-331.525,256-331.525
	c-342.923,0-620.92,277.997-620.92,620.92c0,342.921,277.997,620.92,620.92,620.92c254.608,0,473.381-153.27,569.202-372.552
	h307.186c-108.11,382.233-459.53,662.314-876.388,662.314c-502.956,0-910.683-407.731-910.683-910.683
	c0-502.956,407.727-910.683,910.683-910.683c230.409,0,440.813,85.594,601.203,226.693l309.479-309.482v827.893H338.789z"/>
</svg>
