<?xml version="1.0" encoding="iso-8859-1"?>
<!-- Generator: Adobe Illustrator 16.0.4, SVG Export Plug-In . SVG Version: 6.00 Build 0)  -->
<!DOCTYPE svg PUBLIC "-//W3C//DTD SVG 1.1//EN" "http://www.w3.org/Graphics/SVG/1.1/DTD/svg11.dtd">
<svg version="1.1" xmlns="http://www.w3.org/2000/svg" xmlns:xlink="http://www.w3.org/1999/xlink" x="0px" y="0px" width="1000px"
	 height="1000px" viewBox="0 0 1000 1000" style="enable-background:new 0 0 1000 1000;" xml:space="preserve">
<g id="help">
	<path d="M500,93.403C275.443,93.403,93.403,275.443,93.403,500c0,224.558,182.04,406.597,406.597,406.597
		c224.558,0,406.597-182.039,406.597-406.597C906.597,275.443,724.558,93.403,500,93.403z M559.189,800.468H430.124v-126.6h129.065
		V800.468z M691.955,423.136c-6.859,16.994-15.351,31.521-25.484,43.57c-10.147,12.062-21.374,22.337-33.705,30.828
		c-12.331,8.503-23.981,16.993-34.938,25.483c-10.97,8.504-20.693,18.228-29.184,29.184c-8.503,10.97-13.847,24.662-16.03,41.104
		v31.239h-110.98v-36.993c1.645-23.558,6.166-43.287,13.564-59.189c7.398-15.89,16.03-29.453,25.896-40.692
		c9.864-11.227,20.27-20.963,31.238-29.184c10.957-8.221,21.092-16.441,30.417-24.662c9.312-8.221,16.853-17.264,22.607-27.129
		c5.754-9.864,8.349-22.195,7.81-36.993c0-25.201-6.166-43.84-18.497-55.901c-12.331-12.048-29.466-18.085-51.38-18.085
		c-14.797,0-27.539,2.877-38.226,8.632c-10.688,5.754-19.461,13.436-26.307,23.018c-6.859,9.596-11.92,20.835-15.209,33.705
		c-3.288,12.884-4.932,26.718-4.932,41.515H297.77c0.54-29.595,5.613-56.723,15.209-81.385
		c9.582-24.662,23.018-46.036,40.281-64.122s38.085-32.189,62.478-42.337c24.38-10.135,51.649-15.208,81.797-15.208
		c38.907,0,71.379,5.343,97.416,16.03c26.023,10.687,46.986,23.981,62.889,39.87c15.889,15.902,27.257,33.024,34.116,51.38
		c6.846,18.368,10.275,35.49,10.275,51.38C702.23,384.499,698.801,406.155,691.955,423.136z"/>
</g>
<g id="Layer_1">
</g>
</svg>
