<?xml version="1.0" encoding="iso-8859-1"?>
<!-- Generator: Adobe Illustrator 16.0.4, SVG Export Plug-In . SVG Version: 6.00 Build 0)  -->
<!DOCTYPE svg PUBLIC "-//W3C//DTD SVG 1.1//EN" "http://www.w3.org/Graphics/SVG/1.1/DTD/svg11.dtd">
<svg version="1.1" id="Layer_1" xmlns="http://www.w3.org/2000/svg" xmlns:xlink="http://www.w3.org/1999/xlink" x="0px" y="0px"
	 width="1000px" height="1000px" viewBox="0 0 1000 1000" style="enable-background:new 0 0 1000 1000;" xml:space="preserve">
<g id="reset">
	<path d="M534,430.756h342v-342l-128,128c-66-59-153-94-248-94c-208,0-376,168-376,376c0,207.993,168,375.993,376,375.993
		c172,0,317-116,362-273H735c-40,90-130,153-235,153c-142,0-256-114-256-255.993c0-142,114-256,256-256c62,0,119,22,163,59
		L534,430.756L534,430.756z"/>
</g>
<g id="Layer_1_1_">
</g>
</svg>
