<?xml version="1.0" encoding="iso-8859-1"?>
<!-- Generator: Adobe Illustrator 16.0.4, SVG Export Plug-In . SVG Version: 6.00 Build 0)  -->
<!DOCTYPE svg PUBLIC "-//W3C//DTD SVG 1.1//EN" "http://www.w3.org/Graphics/SVG/1.1/DTD/svg11.dtd">
<svg version="1.1" xmlns="http://www.w3.org/2000/svg" xmlns:xlink="http://www.w3.org/1999/xlink" x="0px" y="0px" width="1000px"
	 height="1000px" viewBox="0 0 1000 1000" style="enable-background:new 0 0 1000 1000;" xml:space="preserve">
<g id="reset">
	<path d="M722.596,618.725l84.556,84.556c-65.559,97.696-177.02,162.007-303.517,162.007
		c-201.742,0-365.286-163.546-365.286-365.287c0-201.742,163.544-365.287,365.286-365.287c82.633,0,158.838,27.462,220.037,73.729
		l64.656-69.802l73.323,279.483l-284.271-51.743l66.718-72.03c-39.986-27.376-88.346-43.409-140.464-43.409
		c-137.551,0-249.058,111.509-249.058,249.06s111.507,249.058,249.058,249.058C598.192,749.058,680.421,696.353,722.596,618.725z"/>
</g>
<g id="Layer_1">
</g>
</svg>
