<?xml version="1.0" encoding="iso-8859-1"?>
<!-- Generator: Adobe Illustrator 16.0.4, SVG Export Plug-In . SVG Version: 6.00 Build 0)  -->
<!DOCTYPE svg PUBLIC "-//W3C//DTD SVG 1.1//EN" "http://www.w3.org/Graphics/SVG/1.1/DTD/svg11.dtd">
<svg version="1.1" xmlns="http://www.w3.org/2000/svg" xmlns:xlink="http://www.w3.org/1999/xlink" x="0px" y="0px" width="1000px"
	 height="1000px" viewBox="0 0 1000 1000" style="enable-background:new 0 0 1000 1000;" xml:space="preserve">
<g id="three">
	<path d="M893.125,333.906c-21.492-50.813-52.251-96.439-91.421-135.609c-39.171-39.17-84.796-69.929-135.609-91.421
		C613.463,84.614,557.581,73.326,500,73.326s-113.463,11.288-166.095,33.549c-50.813,21.492-96.439,52.251-135.609,91.421
		s-69.929,84.796-91.421,135.609C84.614,386.537,73.326,442.419,73.326,500c0,57.581,11.288,113.463,33.549,166.095
		c21.492,50.813,52.25,96.438,91.421,135.609c39.17,39.17,84.796,69.929,135.609,91.421
		c52.632,22.262,108.514,33.549,166.095,33.549s113.463-11.287,166.095-33.549c50.813-21.492,96.438-52.251,135.609-91.421
		c39.17-39.171,69.929-84.796,91.421-135.609c22.262-52.632,33.549-108.514,33.549-166.095
		C926.674,442.419,915.387,386.537,893.125,333.906z M500,163.326c74.748,0,145.765,24.216,204.132,68.901L500,436.36
		L295.867,232.228C354.234,187.542,425.251,163.326,500,163.326z M232.228,295.868L436.36,500L232.228,704.133
		C187.542,645.766,163.326,574.749,163.326,500C163.326,425.251,187.542,354.235,232.228,295.868z M500,836.674
		c-74.749,0-145.766-24.216-204.133-68.901L500,563.639l204.134,204.133C645.767,812.457,574.749,836.674,500,836.674z
		 M767.772,704.133L563.64,500l204.132-204.133c44.686,58.367,68.902,129.384,68.902,204.133
		C836.674,574.748,812.458,645.766,767.772,704.133z"/>
</g>
<g id="Layer_1">
</g>
</svg>
