<?xml version="1.0" encoding="iso-8859-1"?>
<!-- Generator: Adobe Illustrator 16.0.4, SVG Export Plug-In . SVG Version: 6.00 Build 0)  -->
<!DOCTYPE svg PUBLIC "-//W3C//DTD SVG 1.1//EN" "http://www.w3.org/Graphics/SVG/1.1/DTD/svg11.dtd">
<svg version="1.1" xmlns="http://www.w3.org/2000/svg" xmlns:xlink="http://www.w3.org/1999/xlink" x="0px" y="0px" width="1000px"
	 height="1000px" viewBox="0 0 1000 1000" style="enable-background:new 0 0 1000 1000;" xml:space="preserve">
<g id="two">
	<path d="M793.798,793.796c-8.787,8.787-20.304,13.181-31.82,13.181s-23.033-4.394-31.819-13.181L500,563.639L269.843,793.797
		c-8.787,8.787-20.303,13.181-31.82,13.181s-23.033-4.394-31.82-13.18c-17.574-17.574-17.574-46.066,0-63.64L436.36,500
		L206.203,269.843c-17.574-17.573-17.574-46.066,0-63.64c17.573-17.573,46.065-17.573,63.64,0L500,436.36l230.156-230.158
		c17.574-17.573,46.067-17.573,63.64,0c17.574,17.574,17.574,46.066,0,63.64L563.64,500l230.157,230.157
		C811.371,747.73,811.371,776.223,793.798,793.796z"/>
</g>
<g id="Layer_1">
</g>
</svg>
